<svg width="305" height="27" viewBox="0 0 305 27" fill="none" xmlns="http://www.w3.org/2000/svg">
<path fill-rule="evenodd" clip-rule="evenodd" d="M290.65 18.2401C290.504 18.2527 290.357 18.2527 290.21 18.2401C290 18.2401 289.67 18.0601 289.21 17.0301C288.46 15.3201 286.51 10.7001 286.21 10.0301C286.09 9.78006 286.04 9.67006 285.86 9.67006C285.68 9.67006 285.65 9.81006 285.52 10.1301L282.46 17.2301C282.22 17.8101 282.02 18.1501 281.46 18.2301H281.12C281.02 18.2301 280.98 18.2901 280.98 18.3501C280.98 18.4101 281.05 18.4701 281.2 18.4701C281.81 18.4701 282.43 18.4701 282.55 18.4701C282.92 18.4701 283.47 18.4701 283.85 18.4701C283.97 18.4701 284.04 18.4701 284.04 18.3501C284.04 18.2301 284.04 18.2301 283.87 18.2301H283.7C283.34 18.2301 283.23 18.1101 283.23 17.9101C283.245 17.6718 283.303 17.4381 283.4 17.2201L284.03 15.7101C284.03 15.6401 284.03 15.6301 284.13 15.6301H286.88C286.94 15.6301 286.98 15.6301 287 15.7101L288 18.0001C288.011 18.0235 288.017 18.049 288.018 18.0749C288.018 18.1009 288.013 18.1266 288.003 18.1503C287.992 18.1741 287.977 18.1953 287.957 18.2125C287.938 18.2297 287.915 18.2425 287.89 18.2501C287.77 18.2501 287.74 18.3101 287.74 18.3701C287.74 18.4301 287.88 18.4501 288.09 18.4701C289.09 18.4701 289.92 18.4701 290.34 18.4701C290.76 18.4701 290.84 18.4701 290.84 18.3501C290.84 18.2301 290.76 18.2401 290.65 18.2401ZM286.65 15.0101H284.39C284.39 15.0101 284.33 15.0101 284.39 14.9401L285.52 12.0801C285.52 12.0801 285.52 11.9701 285.59 11.9701C285.66 11.9701 285.59 12.0401 285.64 12.0801L286.74 14.9501C286.74 14.9501 286.74 15.0001 286.69 15.0001L286.65 15.0101ZM119.83 18.2401C119.687 18.2531 119.543 18.2531 119.4 18.2401C119.18 18.2401 118.85 18.0601 118.4 17.0301C117.65 15.3201 115.7 10.7001 115.4 10.0301C115.28 9.78006 115.23 9.67006 115.06 9.67006C114.89 9.67006 114.84 9.81006 114.71 10.1301L111.71 17.2301C111.47 17.8101 111.27 18.1501 110.71 18.2301H110.36C110.344 18.2287 110.327 18.2307 110.311 18.2362C110.295 18.2416 110.281 18.2502 110.269 18.2615C110.257 18.2727 110.247 18.2865 110.24 18.3017C110.233 18.317 110.23 18.3334 110.23 18.3501C110.23 18.4501 110.29 18.4701 110.44 18.4701C111.05 18.4701 111.68 18.4701 111.8 18.4701C112.17 18.4701 112.71 18.4701 113.1 18.4701C113.22 18.4701 113.28 18.4701 113.28 18.3501C113.28 18.2301 113.28 18.2301 113.11 18.2301H112.94C112.58 18.2301 112.47 18.1101 112.47 17.9101C112.491 17.6715 112.551 17.4382 112.65 17.2201L113.27 15.7101C113.27 15.6401 113.27 15.6301 113.38 15.6301H116.13C116.156 15.6267 116.183 15.633 116.205 15.6476C116.227 15.6623 116.243 15.6845 116.25 15.7101L117.15 17.9801C117.161 18.0035 117.167 18.029 117.168 18.0549C117.168 18.0809 117.163 18.1066 117.153 18.1303C117.142 18.1541 117.127 18.1753 117.107 18.1925C117.088 18.2097 117.065 18.2225 117.04 18.2301C116.92 18.2301 116.9 18.2901 116.9 18.3501C116.9 18.4101 117.03 18.4301 117.24 18.4501C118.24 18.4501 119.08 18.4501 119.49 18.4501C119.9 18.4501 119.99 18.4501 119.99 18.3301C119.99 18.2101 119.94 18.2401 119.83 18.2401ZM115.83 15.0101H113.58C113.58 15.0101 113.51 15.0101 113.58 14.9401L114.7 12.0801C114.7 12.0801 114.7 11.9701 114.77 11.9701C114.84 11.9701 114.77 12.0401 114.77 12.0801L115.93 15.0001C115.93 15.0001 115.93 15.0001 115.87 15.0001L115.83 15.0101ZM101.3 16.8701C101.22 17.3401 101.08 17.5801 100.79 17.7101C100.435 17.8236 100.063 17.8743 99.6901 17.8601C98.4901 17.8601 98.1301 17.6901 98.1101 16.9201C98.1101 16.5801 98.1101 15.6301 98.1101 15.2401V14.3401C98.1101 14.2701 98.1101 14.2201 98.1701 14.2201C98.4701 14.2201 99.8001 14.2201 100.01 14.2201C100.45 14.2201 100.59 14.4301 100.66 14.6601C100.669 14.7966 100.669 14.9335 100.66 15.0701C100.66 15.1201 100.66 15.1601 100.77 15.1601C100.88 15.1601 100.88 15.0001 100.88 14.9101C100.88 14.8201 100.88 14.3801 100.94 14.1501C101 13.5801 101.03 13.4001 101.03 13.3301C101.03 13.2601 101.03 13.2101 100.94 13.2101C100.85 13.2101 100.85 13.2801 100.75 13.3601C100.65 13.4401 100.47 13.5001 100.19 13.5301C99.9101 13.5601 98.4101 13.5301 98.1901 13.5301C98.1201 13.5301 98.1101 13.4701 98.1101 13.4101V10.7001C98.1101 10.6301 98.1101 10.5901 98.1901 10.5901C98.4301 10.5901 99.8201 10.5901 100.02 10.6401C100.61 10.7001 100.7 10.8601 100.79 11.0601C100.845 11.1896 100.873 11.3293 100.87 11.4701C100.87 11.5601 100.87 11.6101 100.97 11.6101C101.07 11.6101 101.08 11.4801 101.1 11.4301C101.12 11.3801 101.15 10.8001 101.16 10.6801C101.176 10.4346 101.209 10.1907 101.26 9.95006C101.26 9.95006 101.26 9.85006 101.18 9.85006C101.116 9.86325 101.052 9.87994 100.99 9.90006L100.5 9.97006H97.3101C96.9801 9.97006 96.2301 9.97006 95.6201 9.97006C95.4501 9.97006 95.3601 9.97006 95.3601 10.0801C95.3601 10.1901 95.4401 10.2001 95.5601 10.2001C95.7132 10.1873 95.867 10.1873 96.0201 10.2001C96.3901 10.3101 96.5001 10.4301 96.5301 10.8201C96.5601 11.2101 96.5301 11.4901 96.5301 13.2101V15.2101C96.5301 16.2101 96.5301 17.1401 96.4801 17.6201C96.4301 18.1001 96.3701 18.1601 96.1301 18.2101C95.9941 18.2285 95.8562 18.2285 95.7201 18.2101C95.5701 18.2101 95.5301 18.2801 95.5301 18.3301C95.5301 18.3801 95.6101 18.4501 95.7601 18.4501H96.5701H97.2301H98.5901C99.1601 18.4501 99.8701 18.4501 100.74 18.4501C101.18 18.4501 101.29 18.4501 101.37 18.1601C101.454 17.7479 101.508 17.3301 101.53 16.9101C101.53 16.7901 101.53 16.6401 101.42 16.6401C101.31 16.6401 101.32 16.7601 101.3 16.8701ZM141.59 8.44006C140.98 8.44006 140.2 8.44006 139.66 8.44006C139.29 8.44006 138.45 8.44006 137.75 8.44006C137.55 8.44006 137.45 8.44006 137.45 8.56006C137.45 8.68006 137.53 8.68006 137.68 8.68006C137.853 8.66191 138.027 8.66191 138.2 8.68006C138.64 8.77006 138.74 8.98006 138.77 9.43006C138.8 9.88006 138.77 10.2301 138.77 12.2501V14.5901C138.77 15.8101 138.77 16.8601 138.7 17.4201C138.7 17.8001 138.58 18.1001 138.31 18.1501C138.154 18.1693 137.996 18.1693 137.84 18.1501C137.68 18.1501 137.62 18.1501 137.62 18.2601C137.62 18.3701 137.72 18.3901 137.89 18.3901C138.42 18.3901 139.26 18.3901 139.56 18.3901C139.86 18.3901 140.75 18.3901 141.62 18.3901C141.77 18.3901 141.88 18.3901 141.88 18.2601C141.88 18.1301 141.81 18.1501 141.66 18.1501C141.437 18.1657 141.213 18.1657 140.99 18.1501C140.59 18.1001 140.51 17.8001 140.47 17.4301C140.4 16.8601 140.4 15.8101 140.4 14.5901V9.31006C140.4 9.17006 140.4 9.09006 140.51 9.06006C140.677 9.02007 140.849 9.00324 141.02 9.01006C141.512 9.01382 141.986 9.19896 142.35 9.53006C142.621 9.78493 142.832 10.0963 142.968 10.4419C143.105 10.7876 143.163 11.1591 143.14 11.5301C143.171 12.0515 143.005 12.5655 142.676 12.9709C142.346 13.3762 141.877 13.6435 141.36 13.7201C141.08 13.7201 140.99 13.7201 140.99 13.8701C140.99 14.0201 141.08 13.9701 141.14 13.9901H141.42C141.85 14.0094 142.278 13.9401 142.68 13.7865C143.082 13.6328 143.447 13.3981 143.754 13.0969C144.061 12.7957 144.302 12.4346 144.463 12.036C144.624 11.6373 144.702 11.2098 144.69 10.7801C144.681 10.1852 144.445 9.61637 144.03 9.19006C143.694 8.90831 143.305 8.69677 142.886 8.56795C142.467 8.43913 142.026 8.39564 141.59 8.44006ZM132.38 16.6501C132.28 16.6501 132.26 16.7201 132.24 16.8201C132.211 17.07 132.111 17.3062 131.95 17.5001C131.66 17.8101 131.21 17.8201 130.58 17.8201C129.68 17.8201 129.23 17.7501 129.03 17.5801C128.83 17.4101 128.78 16.6501 128.78 15.2001V13.2001C128.78 11.4801 128.78 11.2001 128.78 10.8101C128.78 10.4201 128.9 10.2501 129.22 10.1901C129.37 10.1801 129.52 10.1801 129.67 10.1901C129.82 10.1901 129.89 10.1901 129.89 10.0701C129.89 9.95006 129.81 9.96006 129.63 9.96006L128 10.0001C127.68 10.0001 126.93 10.0001 126.39 10.0001C126.22 10.0001 126.14 10.0001 126.14 10.1101C126.14 10.2201 126.2 10.2301 126.34 10.2301C126.466 10.218 126.594 10.218 126.72 10.2301C127.09 10.3401 127.2 10.4601 127.23 10.8501C127.26 11.2401 127.23 11.5201 127.23 13.2401V15.2401C127.23 16.2401 127.23 17.1701 127.23 17.6501C127.23 18.1301 127.12 18.1901 126.88 18.2401C126.744 18.2579 126.606 18.2579 126.47 18.2401C126.32 18.2401 126.28 18.3101 126.28 18.3601C126.28 18.4101 126.36 18.4801 126.51 18.4801H127.32H127.98H129.54C130.12 18.4801 130.8 18.4801 131.64 18.4801C132.25 18.4801 132.3 18.4301 132.38 18.1701C132.469 17.7415 132.525 17.307 132.55 16.8701C132.48 16.7701 132.46 16.6501 132.38 16.6501ZM247.74 18.2401C247.597 18.2531 247.453 18.2531 247.31 18.2401C247.09 18.2401 246.76 18.0601 246.31 17.0301C245.56 15.3201 243.61 10.7001 243.31 10.0301C243.19 9.78006 243.14 9.67006 242.97 9.67006C242.8 9.67006 242.75 9.81006 242.62 10.1301L239.62 17.2301C239.38 17.8101 239.18 18.1501 238.62 18.2301H238.27C238.254 18.2287 238.237 18.2307 238.221 18.2362C238.205 18.2416 238.191 18.2502 238.179 18.2615C238.167 18.2727 238.157 18.2865 238.15 18.3017C238.143 18.317 238.14 18.3334 238.14 18.3501C238.14 18.4501 238.2 18.4701 238.35 18.4701C238.96 18.4701 239.59 18.4701 239.71 18.4701C240.08 18.4701 240.62 18.4701 241.01 18.4701C241.13 18.4701 241.19 18.4701 241.19 18.3501C241.19 18.2301 241.19 18.2301 241.02 18.2301H240.85C240.49 18.2301 240.38 18.1101 240.38 17.9101C240.401 17.6715 240.461 17.4382 240.56 17.2201L241.18 15.7101C241.18 15.6401 241.18 15.6301 241.29 15.6301H244C244.026 15.6267 244.053 15.633 244.075 15.6476C244.097 15.6623 244.113 15.6845 244.12 15.7101L245.02 17.9801C245.031 18.0035 245.037 18.029 245.038 18.0549C245.038 18.0809 245.033 18.1066 245.023 18.1303C245.012 18.1541 244.997 18.1753 244.977 18.1925C244.958 18.2097 244.935 18.2225 244.91 18.2301C244.79 18.2301 244.77 18.2901 244.77 18.3501C244.77 18.4101 244.9 18.4301 245.11 18.4501C246.11 18.4501 246.95 18.4501 247.36 18.4501C247.77 18.4501 247.86 18.4501 247.86 18.3301C247.86 18.2101 247.85 18.2401 247.74 18.2401ZM243.74 15.0101H241.49C241.49 15.0101 241.42 15.0101 241.49 14.9401L242.62 12.0801C242.62 12.0801 242.62 11.9701 242.68 11.9701C242.74 11.9701 242.68 12.0401 242.68 12.0801L243.84 15.0001C243.84 15.0001 243.84 15.0001 243.78 15.0001L243.74 15.0101ZM110.43 11.4701C110.43 11.1801 110.43 10.3401 110.43 10.1001C110.43 9.86006 110.43 9.86006 110.34 9.86006L110.02 9.91006C109.756 9.95363 109.488 9.9737 109.22 9.97006H104.5C104.109 9.97105 103.719 9.95102 103.33 9.91006C103.04 9.91006 102.92 9.78006 102.83 9.78006C102.74 9.78006 102.72 9.85006 102.69 9.99006C102.66 10.1301 102.44 11.1801 102.44 11.3601C102.44 11.5401 102.44 11.5501 102.55 11.5501C102.66 11.5501 102.65 11.4901 102.68 11.4001C102.727 11.2639 102.794 11.1357 102.88 11.0201C103.05 10.7601 103.33 10.6801 104.01 10.6701H105.75V15.2001C105.75 16.2001 105.75 17.1301 105.75 17.6101C105.75 18.0901 105.64 18.1501 105.4 18.2001C105.264 18.2191 105.126 18.2191 104.99 18.2001C104.84 18.2001 104.8 18.2701 104.8 18.3201C104.8 18.3701 104.88 18.4401 105.03 18.4401C105.49 18.4401 106.29 18.4401 106.56 18.4401C106.83 18.4401 107.67 18.4401 108.44 18.4401C108.58 18.4401 108.67 18.4401 108.67 18.3201C108.67 18.2001 108.62 18.2001 108.48 18.2001C108.28 18.2153 108.08 18.2153 107.88 18.2001C107.54 18.1501 107.47 17.9401 107.43 17.6201C107.43 17.1301 107.37 16.2401 107.37 15.2001V10.6301H108.84C109.84 10.6301 110.2 10.9901 110.22 11.2801V11.4001C110.22 11.5701 110.22 11.6201 110.35 11.6201C110.48 11.6201 110.41 11.5901 110.43 11.4701ZM94.2901 9.86006L94.0001 9.91006C93.7356 9.95273 93.468 9.9728 93.2001 9.97006H88.4301C88.0426 9.97106 87.6554 9.95103 87.2701 9.91006C86.9701 9.91006 86.8501 9.78006 86.7601 9.78006C86.6701 9.78006 86.6501 9.85006 86.6301 9.99006C86.6101 10.1301 86.3801 11.1801 86.3801 11.3601C86.3801 11.5401 86.3801 11.5501 86.4801 11.5501C86.5801 11.5501 86.5901 11.4901 86.6101 11.4001C86.6568 11.2639 86.7243 11.1357 86.8101 11.0201C86.9901 10.7601 87.2701 10.6801 87.9401 10.6701H89.6801V15.2001C89.6801 16.2001 89.6801 17.1301 89.6301 17.6101C89.5801 18.0901 89.5201 18.1501 89.2901 18.2001C89.1508 18.219 89.0095 18.219 88.8701 18.2001C88.7301 18.2001 88.6901 18.2701 88.6901 18.3201C88.6901 18.3701 88.7701 18.4401 88.9101 18.4401C89.3801 18.4401 90.1801 18.4401 90.4401 18.4401C90.7001 18.4401 91.5601 18.4401 92.3301 18.4401C92.4601 18.4401 92.5501 18.4401 92.5501 18.3201C92.5501 18.2001 92.5501 18.2001 92.3701 18.2001C92.1704 18.2156 91.9698 18.2156 91.7701 18.2001C91.4201 18.1501 91.3601 17.9401 91.3201 17.6201C91.2601 17.1301 91.2501 16.2401 91.2501 15.2001V10.6301H92.7301C93.7301 10.6301 94.0801 10.9901 94.1101 11.2801V11.4001C94.1101 11.5701 94.1101 11.6201 94.2401 11.6201C94.3701 11.6201 94.3401 11.5601 94.3501 11.4401C94.3501 11.1501 94.3501 10.3101 94.3501 10.0701C94.3501 9.83006 94.3701 9.86006 94.2901 9.86006ZM69.4601 8.44006C69.0201 8.44006 68.4601 8.44006 68.3601 8.44006C68.2601 8.44006 67.6801 8.44006 66.9701 8.44006C66.7701 8.44006 66.6701 8.44006 66.6701 8.56006C66.6701 8.68006 66.7601 8.68006 66.8901 8.68006C67.4101 8.68006 67.5301 8.86006 67.5301 9.08006C67.5205 9.34129 67.4768 9.60015 67.4001 9.85006C66.9301 11.4001 65.8701 14.9101 65.6301 15.8501L62.8301 9.12006C62.6601 8.69006 62.5901 8.49006 62.4401 8.49006C62.2901 8.49006 62.2401 8.60006 62.1101 8.97006L59.5301 15.8901C59.2901 15.1501 58.0601 11.1201 57.8301 10.2401C57.6884 9.83582 57.5781 9.42126 57.5001 9.00006C57.5001 8.86006 57.5001 8.76006 57.6501 8.71006C57.7625 8.67131 57.8828 8.66101 58.0001 8.68006C58.1301 8.68006 58.2401 8.68006 58.2401 8.56006C58.2401 8.44006 58.1401 8.44006 57.9601 8.44006C57.1901 8.44006 56.6001 8.44006 56.4801 8.44006C56.3601 8.44006 55.6301 8.44006 54.9401 8.44006C54.7601 8.44006 54.6501 8.44006 54.6501 8.56006C54.6501 8.68006 54.7301 8.68006 54.8601 8.68006C55.0442 8.67378 55.2267 8.71512 55.3901 8.80006C55.6439 9.05867 55.8175 9.38509 55.8901 9.74006L58.7001 18.1801C58.8201 18.5201 58.8801 18.6701 59.0101 18.6701C59.1401 18.6701 59.2301 18.5101 59.4901 17.9601C60.0601 16.7401 61.8301 12.0401 62.0801 11.3601L64.8501 18.0001C65.0501 18.4901 65.1301 18.6501 65.2601 18.6501C65.3901 18.6501 65.5001 18.4901 65.6401 18.0201C66.3001 16.0201 67.6401 11.8101 68.3001 10.1301C68.5801 9.37006 68.7301 8.84006 69.0501 8.72006C69.1994 8.67617 69.3546 8.65592 69.5101 8.66006C69.6301 8.66006 69.7001 8.66006 69.7001 8.52006C69.7001 8.38006 69.6001 8.44006 69.4601 8.44006ZM304.52 16.7001C304.44 16.7001 304.42 16.7601 304.39 16.8701C304.31 17.3401 304.18 17.5801 303.89 17.7101C303.532 17.8235 303.156 17.8743 302.78 17.8601C301.59 17.8601 301.23 17.6901 301.2 16.9201C301.2 16.5801 301.2 15.6301 301.2 15.2401V14.3401C301.2 14.2701 301.2 14.2201 301.27 14.2201C301.56 14.2201 302.89 14.2201 303.1 14.2201C303.54 14.2201 303.69 14.4301 303.75 14.6601C303.759 14.7966 303.759 14.9335 303.75 15.0701C303.75 15.1201 303.75 15.1601 303.86 15.1601C303.97 15.1601 303.98 15.0001 303.98 14.9101C303.98 14.8201 303.98 14.3801 304.03 14.1501C304.1 13.5801 304.12 13.4001 304.12 13.3301C304.12 13.2601 304.12 13.2101 304.03 13.2101C303.94 13.2101 303.94 13.2801 303.85 13.3601C303.76 13.4401 303.57 13.5001 303.29 13.5301C303.01 13.5601 301.51 13.5301 301.24 13.5301C301.18 13.5301 301.16 13.4701 301.16 13.4101V10.7001C301.16 10.6301 301.16 10.5901 301.24 10.5901C301.48 10.5901 302.88 10.5901 303.08 10.6401C303.66 10.7001 303.75 10.8601 303.85 11.0601C303.901 11.1909 303.928 11.3297 303.93 11.4701C303.93 11.5601 303.93 11.6101 304.02 11.6101C304.11 11.6101 304.14 11.4801 304.15 11.4301C304.16 11.3801 304.2 10.8001 304.22 10.6801C304.23 10.4347 304.26 10.1905 304.31 9.95006C304.31 9.95006 304.31 9.85006 304.23 9.85006C304.169 9.86335 304.109 9.88005 304.05 9.90006C303.95 9.90006 303.77 9.90006 303.55 9.97006H300.4C300.07 9.97006 299.33 9.97006 298.72 9.97006C298.54 9.97006 298.45 9.97006 298.45 10.0801C298.45 10.1901 298.53 10.2001 298.65 10.2001C298.807 10.1878 298.964 10.1878 299.12 10.2001C299.194 10.2075 299.265 10.2295 299.33 10.2648C299.396 10.3001 299.453 10.348 299.5 10.4057C299.546 10.4633 299.581 10.5296 299.601 10.6008C299.622 10.6719 299.628 10.7464 299.62 10.8201C299.62 11.1801 299.62 11.4901 299.62 13.2101V15.2101C299.62 16.2101 299.62 17.1401 299.57 17.6201C299.52 18.1001 299.46 18.1601 299.23 18.2101C299.091 18.2284 298.95 18.2284 298.81 18.2101C298.67 18.2101 298.63 18.2801 298.63 18.3301C298.63 18.3801 298.71 18.4501 298.85 18.4501H299.66H300.33H301.68C302.26 18.4501 302.96 18.4501 303.84 18.4501C304.27 18.4501 304.38 18.4501 304.46 18.1601C304.549 17.7487 304.603 17.3305 304.62 16.9101C304.63 16.8501 304.62 16.7001 304.52 16.7001ZM297.39 9.86006L297.07 9.91006C296.806 9.95317 296.538 9.97324 296.27 9.97006H291.53C291.139 9.97132 290.749 9.95129 290.36 9.91006C290.07 9.91006 289.95 9.78006 289.85 9.78006C289.75 9.78006 289.75 9.85006 289.72 9.99006C289.69 10.1301 289.47 11.1801 289.47 11.3601C289.47 11.5401 289.47 11.5501 289.58 11.5501C289.69 11.5501 289.68 11.4901 289.71 11.4001C289.753 11.262 289.82 11.1332 289.91 11.0201C290.08 10.7601 290.36 10.6801 291.04 10.6701H292.78V15.2001C292.78 16.2001 292.78 17.1301 292.72 17.6101C292.66 18.0901 292.62 18.1501 292.38 18.2001C292.244 18.2191 292.106 18.2191 291.97 18.2001C291.82 18.2001 291.78 18.2701 291.78 18.3201C291.78 18.3701 291.86 18.4401 292.01 18.4401C292.47 18.4401 293.27 18.4401 293.53 18.4401C293.79 18.4401 294.65 18.4401 295.42 18.4401C295.55 18.4401 295.65 18.4401 295.65 18.3201C295.65 18.2001 295.59 18.2001 295.46 18.2001C295.26 18.2153 295.06 18.2153 294.86 18.2001C294.52 18.1501 294.45 17.9401 294.41 17.6201C294.36 17.1301 294.35 16.2401 294.35 15.2001V10.6301H295.82C296.87 10.6301 297.17 10.9901 297.2 11.2801V11.4001C297.2 11.5701 297.25 11.6201 297.34 11.6201C297.43 11.6201 297.43 11.5601 297.44 11.4401C297.44 11.1501 297.44 10.3101 297.44 10.0701C297.44 9.83006 297.47 9.86006 297.39 9.86006ZM85.3901 18.2401C85.1937 18.2553 84.9965 18.2553 84.8001 18.2401C84.4501 18.1901 84.3701 18.0201 84.3301 17.7101C84.3301 17.2301 84.3301 16.3301 84.3301 15.2401V13.2401C84.3301 11.5201 84.3301 11.2401 84.3301 10.8501C84.3301 10.4601 84.4401 10.2901 84.7601 10.2301C84.8766 10.221 84.9936 10.221 85.1101 10.2301C85.2301 10.2301 85.3001 10.2301 85.3001 10.0901C85.3001 9.95006 85.2001 10.0001 85.0601 10.0001H83.5501L82.0001 9.94006C81.8101 9.94006 81.7201 9.94006 81.7201 10.0301C81.7201 10.1201 81.7801 10.1701 81.9001 10.1701C82.0451 10.1657 82.19 10.1825 82.3301 10.2201C82.5801 10.3001 82.7001 10.4301 82.7301 10.8201C82.7601 11.2101 82.7301 11.4901 82.7301 13.2101V15.2101C82.7301 16.3001 82.7301 17.2101 82.7301 17.6701C82.7301 18.1301 82.6201 18.1601 82.3801 18.2101C82.2441 18.2285 82.1062 18.2285 81.9701 18.2101C81.8201 18.2101 81.7801 18.2801 81.7801 18.3301C81.7801 18.3801 81.8601 18.4501 82.0101 18.4501C82.4801 18.4501 83.2701 18.4501 83.5401 18.4501C83.8101 18.4501 84.6501 18.4501 85.4301 18.4501C85.5601 18.4501 85.6501 18.4501 85.6501 18.3301C85.6501 18.2101 85.5401 18.2401 85.4001 18.2401H85.3901ZM80.0001 18.2401C79.8004 18.256 79.5998 18.256 79.4001 18.2401C79.0401 18.1901 78.9801 17.9801 78.9401 17.6601C78.8801 17.1701 78.8801 16.2801 78.8801 15.2401V13.2401C78.8801 11.5201 78.8801 11.2401 78.8801 10.8501C78.8801 10.4601 79.0001 10.2901 79.3001 10.2301H79.6501C79.7801 10.2301 79.8601 10.2301 79.8601 10.1101C79.8601 9.99006 79.7801 10.0001 79.6101 10.0001H78.1101C77.8001 10.0001 76.9801 10.0001 76.3601 10.0001C76.1801 10.0001 76.1001 10.0001 76.1001 10.1101C76.1001 10.2201 76.1701 10.2301 76.3001 10.2301C76.4499 10.2176 76.6004 10.2176 76.7501 10.2301C77.1301 10.3401 77.2301 10.4601 77.2601 10.8501C77.2901 11.2401 77.2601 11.6201 77.2601 13.3301V13.5701C77.2601 13.6401 77.2601 13.6501 77.1901 13.6501H72.8501C72.8501 13.6501 72.7701 13.6501 72.7701 13.5701V13.3001C72.7701 11.5901 72.7701 11.1801 72.7701 10.8201C72.7701 10.4601 72.8901 10.2601 73.2101 10.2001H73.5501C73.6901 10.2001 73.7601 10.1601 73.7601 10.0801C73.7601 10.0001 73.6801 9.97006 73.5201 9.97006L72.0001 10.0001C71.6901 10.0001 70.9101 10.0001 70.2901 10.0001C70.1301 10.0001 70.0401 10.0001 70.0401 10.1101C70.0401 10.2201 70.1201 10.2301 70.2401 10.2301C70.3932 10.2173 70.547 10.2173 70.7001 10.2301C71.0701 10.3401 71.1801 10.4601 71.2101 10.8501C71.2401 11.2401 71.2101 11.5201 71.2101 13.2401V15.2401C71.2101 16.2401 71.2101 17.1701 71.2101 17.6501C71.2101 18.1301 71.1001 18.1901 70.8601 18.2401C70.7241 18.2585 70.5862 18.2585 70.4501 18.2401C70.3001 18.2401 70.2601 18.3101 70.2601 18.3601C70.2601 18.4101 70.3401 18.4801 70.4901 18.4801C70.9501 18.4801 71.7301 18.4801 71.9901 18.4801C72.2501 18.4801 73.1301 18.4801 73.8901 18.4801C74.0401 18.4801 74.1301 18.4801 74.1301 18.3601C74.1301 18.2401 74.1301 18.2401 73.9401 18.2401C73.7437 18.2553 73.5465 18.2553 73.3501 18.2401C73.0001 18.1901 72.9301 17.9801 72.8901 17.6601C72.8901 17.1701 72.8301 16.3001 72.8301 15.2701V14.4001C72.8301 14.4001 72.8301 14.3401 72.9101 14.3401H77.3201C77.3371 14.3399 77.3535 14.3459 77.3664 14.3569C77.3793 14.3679 77.3877 14.3833 77.3901 14.4001V15.2701C77.3901 16.2701 77.3901 17.1701 77.3301 17.6501C77.2701 18.1301 77.2301 18.1901 76.9901 18.2401C76.8474 18.2588 76.7028 18.2588 76.5601 18.2401C76.4301 18.2401 76.3801 18.3101 76.3801 18.3601C76.3801 18.4101 76.4701 18.4801 76.6301 18.4801C77.0801 18.4801 77.9001 18.4801 78.1701 18.4801C78.4401 18.4801 79.2601 18.4801 80.0201 18.4801C80.1601 18.4801 80.2601 18.4801 80.2601 18.3601C80.2601 18.2401 80.1301 18.2401 80.0001 18.2401ZM124.47 18.2401C124.274 18.2553 124.076 18.2553 123.88 18.2401C123.53 18.1901 123.45 18.0201 123.41 17.7101C123.41 17.2301 123.41 16.3301 123.41 15.2401V13.2401C123.41 11.5201 123.41 11.2401 123.41 10.8501C123.41 10.4601 123.53 10.2901 123.84 10.2301C123.957 10.221 124.074 10.221 124.19 10.2301C124.31 10.2301 124.38 10.2301 124.38 10.0901C124.38 9.95006 124.28 10.0001 124.14 10.0001H122.63H121.07C120.88 10.0001 120.79 10.0001 120.79 10.0901C120.79 10.1801 120.85 10.2301 120.97 10.2301C121.115 10.2257 121.26 10.2425 121.4 10.2801C121.65 10.3601 121.77 10.4901 121.8 10.8801C121.83 11.2701 121.8 11.5501 121.8 13.2701V15.2701C121.8 16.3601 121.8 17.2701 121.8 17.7301C121.8 18.1901 121.69 18.2201 121.45 18.2701C121.314 18.2885 121.176 18.2885 121.04 18.2701C120.89 18.2701 120.85 18.3401 120.85 18.3901C120.85 18.4401 120.93 18.5101 121.08 18.5101C121.55 18.5101 122.34 18.5101 122.61 18.5101C122.88 18.5101 123.72 18.5101 124.5 18.5101C124.63 18.5101 124.72 18.5101 124.72 18.3901C124.72 18.2701 124.62 18.2401 124.48 18.2401H124.47ZM214.29 13.3101L213.81 13.0501C212.81 12.4601 212.57 12.0501 212.57 11.5601C212.57 10.7901 213.33 10.3501 214.17 10.3501C214.413 10.3307 214.657 10.3685 214.883 10.4606C215.109 10.5526 215.31 10.6963 215.47 10.8801C215.649 11.0917 215.757 11.3539 215.78 11.6301C215.78 11.7601 215.78 11.8301 215.9 11.8301C216.02 11.8301 216.04 11.7101 216.04 11.4701C216.04 10.5801 216.04 10.2601 216.04 10.1101C216.04 9.96006 216 10.0001 215.93 10.0001C215.387 9.86873 214.829 9.80491 214.27 9.81006C212.65 9.81006 211.27 10.7001 211.27 12.0801C211.27 13.0801 211.72 13.8401 213.11 14.6501L213.78 15.0401C214.78 15.6601 214.94 16.1501 214.94 16.6401C214.927 16.8329 214.877 17.0212 214.791 17.1942C214.705 17.3673 214.585 17.5215 214.439 17.648C214.293 17.7745 214.123 17.8707 213.94 17.9312C213.756 17.9916 213.563 18.015 213.37 18.0001C212.982 18.0403 212.591 17.954 212.256 17.754C211.921 17.554 211.659 17.2509 211.51 16.8901C211.444 16.7 211.407 16.5011 211.4 16.3001C211.4 16.2201 211.4 16.1201 211.28 16.1201C211.16 16.1201 211.14 16.2401 211.14 16.4101C211.14 16.5801 211.07 17.3001 211.07 17.9101C211.07 18.1601 211.07 18.2201 211.3 18.3001C211.909 18.5172 212.554 18.6157 213.2 18.5901C213.899 18.6434 214.598 18.4792 215.2 18.1201C215.564 17.903 215.864 17.5934 216.07 17.2228C216.275 16.8522 216.379 16.4337 216.37 16.0101C216.32 15.0001 215.84 14.1601 214.3 13.3101H214.29ZM209.16 16.7001C209.08 16.7001 209.05 16.7601 209.03 16.8701C208.95 17.3401 208.81 17.5801 208.52 17.7101C208.165 17.8236 207.793 17.8743 207.42 17.8601C206.22 17.8601 205.86 17.6901 205.84 16.9201C205.84 16.5801 205.84 15.6301 205.84 15.2401V14.3401C205.84 14.2701 205.84 14.2201 205.9 14.2201C206.2 14.2201 207.53 14.2201 207.74 14.2201C208.18 14.2201 208.32 14.4301 208.39 14.6601C208.399 14.7966 208.399 14.9335 208.39 15.0701C208.39 15.1201 208.39 15.1601 208.5 15.1601C208.61 15.1601 208.61 15.0001 208.61 14.9101C208.61 14.8201 208.61 14.3801 208.67 14.1501C208.73 13.5801 208.76 13.4001 208.76 13.3301C208.76 13.2601 208.76 13.2101 208.67 13.2101C208.58 13.2101 208.57 13.2801 208.48 13.3601C208.39 13.4401 208.2 13.5001 207.92 13.5301C207.64 13.5601 206.14 13.5301 205.92 13.5301C205.85 13.5301 205.84 13.4701 205.84 13.4101V10.7001C205.84 10.6301 205.84 10.5901 205.92 10.5901C206.16 10.5901 207.55 10.5901 207.75 10.6401C208.34 10.7001 208.43 10.8601 208.52 11.0601C208.575 11.1896 208.603 11.3293 208.6 11.4701C208.6 11.5601 208.6 11.6101 208.69 11.6101C208.78 11.6101 208.81 11.4801 208.83 11.4301C208.85 11.3801 208.83 10.8001 208.89 10.6801C208.911 10.4512 208.948 10.224 209 10.0001C209 10.0001 209 9.90006 208.92 9.90006C208.856 9.91325 208.792 9.92994 208.73 9.95006L208.24 10.0201H205.05C204.72 10.0201 203.97 10.0201 203.36 10.0201C203.19 10.0201 203.1 10.0201 203.1 10.1301C203.1 10.2401 203.18 10.2501 203.3 10.2501C203.453 10.2373 203.607 10.2373 203.76 10.2501C204.13 10.3601 204.24 10.4801 204.27 10.8701C204.3 11.2601 204.27 11.5401 204.27 13.2601V15.2601C204.27 16.2601 204.27 17.1901 204.22 17.6701C204.17 18.1501 204.11 18.2101 203.87 18.2601C203.734 18.2779 203.596 18.2779 203.46 18.2601C203.31 18.2601 203.27 18.3301 203.27 18.3801C203.27 18.4301 203.35 18.5001 203.5 18.5001H204.31H204.97H206.33C206.9 18.5001 207.61 18.5001 208.48 18.5001C208.92 18.5001 209.03 18.5001 209.11 18.2101C209.194 17.7979 209.248 17.3801 209.27 16.9601C209.28 16.8501 209.26 16.7001 209.17 16.7001H209.16ZM201.55 18.2401C201.35 18.2556 201.15 18.2556 200.95 18.2401C200.6 18.1901 200.52 18.0201 200.48 17.7101C200.43 17.2301 200.43 16.3301 200.43 15.2401V13.2401C200.43 11.5201 200.43 11.2401 200.43 10.8501C200.43 10.4601 200.55 10.2901 200.86 10.2301C200.977 10.221 201.094 10.221 201.21 10.2301C201.33 10.2301 201.4 10.2301 201.4 10.0901C201.4 9.95006 201.3 10.0001 201.16 10.0001H199.66H198.09C197.9 10.0001 197.81 10.0001 197.81 10.0901C197.81 10.1801 197.88 10.2301 197.99 10.2301C198.135 10.2257 198.28 10.2425 198.42 10.2801C198.67 10.3601 198.79 10.4901 198.82 10.8801C198.85 11.2701 198.82 11.5501 198.82 13.2701V15.2701C198.82 16.3601 198.82 17.2701 198.77 17.7301C198.72 18.1901 198.66 18.2201 198.42 18.2701C198.284 18.2885 198.146 18.2885 198.01 18.2701C197.87 18.2701 197.83 18.3401 197.83 18.3901C197.83 18.4401 197.9 18.5101 198.05 18.5101C198.52 18.5101 199.31 18.5101 199.58 18.5101C199.85 18.5101 200.7 18.5101 201.47 18.5101C201.6 18.5101 201.69 18.5101 201.69 18.3901C201.69 18.2701 201.69 18.2401 201.56 18.2401H201.55ZM238 16.7001C237.92 16.7001 237.89 16.7601 237.86 16.8701C237.78 17.3401 237.65 17.5801 237.36 17.7101C237.005 17.8228 236.633 17.8735 236.26 17.8601C235.06 17.8601 234.7 17.6901 234.68 16.9201C234.68 16.5801 234.68 15.6301 234.68 15.2401V14.3401C234.68 14.2701 234.68 14.2201 234.74 14.2201C235.03 14.2201 236.36 14.2201 236.58 14.2201C237.01 14.2201 237.16 14.4301 237.23 14.6601C237.3 14.8901 237.23 14.9501 237.23 15.0701C237.23 15.1901 237.23 15.1601 237.33 15.1601C237.43 15.1601 237.45 15.0001 237.45 14.9101C237.45 14.8201 237.45 14.3801 237.51 14.1501C237.57 13.5801 237.6 13.4001 237.6 13.3301C237.6 13.2601 237.6 13.2101 237.51 13.2101C237.42 13.2101 237.41 13.2801 237.32 13.3601C237.23 13.4401 237.04 13.5001 236.76 13.5301C236.48 13.5601 234.98 13.5301 234.76 13.5301C234.69 13.5301 234.68 13.4701 234.68 13.4101V10.7001C234.68 10.6301 234.68 10.5901 234.76 10.5901C234.99 10.5901 236.39 10.5901 236.59 10.6401C237.17 10.7001 237.27 10.8601 237.36 11.0601C237.415 11.1896 237.443 11.3293 237.44 11.4701C237.44 11.5601 237.44 11.6101 237.53 11.6101C237.62 11.6101 237.65 11.4801 237.67 11.4301C237.69 11.3801 237.72 10.8001 237.73 10.6801C237.746 10.4352 237.776 10.1915 237.82 9.95006C237.82 9.95006 237.82 9.85006 237.75 9.85006C237.686 9.86325 237.622 9.87994 237.56 9.90006L237.07 9.97006H233.9C233.57 9.97006 232.82 9.97006 232.21 9.97006C232.04 9.97006 231.95 9.97006 231.95 10.0801C231.95 10.1901 232.03 10.2001 232.14 10.2001C232.297 10.187 232.454 10.187 232.61 10.2001C232.98 10.3101 233.09 10.4301 233.11 10.8201C233.13 11.2101 233.11 11.4901 233.11 13.2101V15.2101C233.11 16.2101 233.11 17.1401 233.05 17.6201C232.99 18.1001 232.95 18.1601 232.71 18.2101C232.577 18.2285 232.443 18.2285 232.31 18.2101C232.19 18.2227 232.07 18.2227 231.95 18.2101C231.366 18.0864 230.841 17.7693 230.46 17.3101C229.68 16.4901 228.76 15.3101 227.58 13.8201C228.92 12.7301 229.33 11.8201 229.33 10.8201C229.329 10.4681 229.248 10.1209 229.092 9.80537C228.936 9.48984 228.709 9.21432 228.43 9.00006C227.694 8.57519 226.848 8.38016 226 8.44006H224.12C223.84 8.44006 223.01 8.44006 222.3 8.44006C222.1 8.44006 222.01 8.44006 222.01 8.56006C222.01 8.68006 222.09 8.68006 222.24 8.68006C222.41 8.66187 222.581 8.66187 222.75 8.68006C223.19 8.77006 223.3 8.98006 223.32 9.43006C223.34 9.88006 223.32 10.2301 223.32 12.2501V14.5901C223.32 15.8101 223.32 16.8601 223.25 17.4201C223.25 17.8001 223.14 18.1001 222.87 18.1501C222.711 18.1693 222.55 18.1693 222.39 18.1501C222.23 18.1501 222.18 18.1501 222.18 18.2601C222.18 18.3701 222.27 18.3901 222.44 18.3901C222.98 18.3901 223.81 18.3901 224.07 18.3901C224.33 18.3901 225.25 18.3901 226.02 18.3901C226.19 18.3901 226.28 18.3901 226.28 18.2601C226.28 18.1301 226.28 18.1501 226.12 18.1501C225.904 18.1631 225.687 18.1631 225.47 18.1501C225.08 18.1001 225 17.8001 224.96 17.4201C224.89 16.8601 224.89 15.8101 224.89 14.5801V14.3901C224.889 14.3752 224.89 14.3602 224.895 14.3462C224.9 14.3321 224.908 14.3193 224.919 14.3088C224.929 14.2982 224.942 14.2902 224.956 14.2852C224.97 14.2802 224.985 14.2785 225 14.2801H226.15C226.194 14.2749 226.239 14.2803 226.281 14.296C226.323 14.3116 226.36 14.337 226.39 14.3701C226.56 14.5701 227.17 15.4801 227.71 16.2101C228.171 16.982 228.792 17.6467 229.53 18.1601C229.971 18.3735 230.463 18.4601 230.95 18.4101H232.32H233.13H233.79H235.15C235.72 18.4101 236.42 18.4101 237.3 18.4101C237.74 18.4101 237.84 18.4101 237.92 18.1201C238.009 17.7087 238.063 17.2905 238.08 16.8701C238.12 16.8501 238.11 16.7001 238 16.7001ZM227 13.4901C226.725 13.6776 226.39 13.7561 226.06 13.7101C225.722 13.7135 225.386 13.6697 225.06 13.5801C224.97 13.5801 224.94 13.4901 224.94 13.3401V9.34006C224.94 9.23006 224.94 9.18006 225.06 9.16006C225.29 9.11054 225.525 9.09037 225.76 9.10006C226.056 9.11513 226.345 9.19171 226.61 9.32492C226.874 9.45814 227.108 9.64505 227.296 9.87372C227.485 10.1024 227.623 10.3678 227.703 10.653C227.783 10.9382 227.802 11.2369 227.76 11.5301C227.794 11.8933 227.742 12.2593 227.61 12.5994C227.479 12.9394 227.27 13.2443 227 13.4901ZM254.35 16.6501C254.26 16.6501 254.23 16.7201 254.22 16.8201C254.183 17.0696 254.08 17.3046 253.92 17.5001C253.63 17.8101 253.18 17.8201 252.55 17.8201C251.65 17.8201 251.2 17.7501 251 17.5801C250.8 17.4101 250.75 16.6501 250.75 15.2001V13.2001C250.75 11.4801 250.75 11.2001 250.75 10.8101C250.75 10.4201 250.87 10.2501 251.19 10.1901C251.34 10.1805 251.49 10.1805 251.64 10.1901C251.79 10.1901 251.86 10.1901 251.86 10.0701C251.86 9.95006 251.78 9.96006 251.6 9.96006H249.92C249.6 9.96006 248.85 9.96006 248.31 9.96006C248.14 9.96006 248.06 9.96006 248.06 10.0701C248.06 10.1801 248.12 10.1901 248.26 10.1901C248.386 10.178 248.514 10.178 248.64 10.1901C249.01 10.3001 249.12 10.4201 249.15 10.8101C249.18 11.2001 249.15 11.4801 249.15 13.2001V15.2001C249.15 16.2001 249.15 17.1301 249.1 17.6101C249.05 18.0901 248.99 18.1501 248.75 18.2001C248.614 18.2179 248.476 18.2179 248.34 18.2001C248.19 18.2001 248.15 18.2701 248.15 18.3201C248.15 18.3701 248.23 18.4401 248.38 18.4401H249.19H249.85H251.41C251.99 18.4401 252.67 18.4401 253.51 18.4401C254.12 18.4401 254.17 18.3901 254.25 18.1301C254.339 17.7015 254.395 17.267 254.42 16.8301C254.45 16.7701 254.43 16.6501 254.35 16.6501ZM266 16.4601C265.91 16.4601 265.88 16.5201 265.85 16.6601C265.76 17.2101 265.6 17.4901 265.25 17.6601C264.851 17.7917 264.43 17.846 264.01 17.8201C262.65 17.8201 262.44 17.6201 262.41 16.7001C262.41 16.3101 262.41 15.0901 262.41 14.6401V13.5801C262.41 13.5001 262.41 13.4501 262.49 13.4501C262.81 13.4501 264.12 13.4501 264.38 13.4501C264.87 13.4501 265.05 13.7001 265.12 13.9601C265.149 14.1185 265.166 14.279 265.17 14.4401C265.169 14.4562 265.171 14.4725 265.176 14.4878C265.182 14.503 265.19 14.5169 265.202 14.5283C265.213 14.5398 265.227 14.5486 265.242 14.5541C265.258 14.5596 265.274 14.5616 265.29 14.5601C265.41 14.5601 265.41 14.4201 265.41 14.3101C265.41 14.2001 265.41 13.6901 265.47 13.4201C265.52 12.7401 265.57 12.5301 265.57 12.4201C265.57 12.3101 265.57 12.3101 265.48 12.3101C265.39 12.3101 265.36 12.3801 265.27 12.4901C265.086 12.6284 264.86 12.699 264.63 12.6901C264.32 12.6901 262.8 12.6901 262.5 12.6901C262.42 12.6901 262.41 12.6901 262.41 12.5501V9.27006C262.41 9.18006 262.41 9.14006 262.5 9.14006C262.77 9.14006 264.16 9.14006 264.39 9.14006C265.05 9.22006 265.19 9.38006 265.28 9.62006C265.335 9.77395 265.363 9.93655 265.36 10.1001C265.36 10.2201 265.36 10.2901 265.48 10.2901C265.6 10.2901 265.6 10.2101 265.61 10.1401C265.62 10.0701 265.67 9.40006 265.68 9.26006C265.7 8.97153 265.737 8.6844 265.79 8.40006C265.79 8.33006 265.79 8.28006 265.71 8.28006C265.636 8.29195 265.562 8.30865 265.49 8.33006C265.303 8.37246 265.112 8.39922 264.92 8.41006C264.67 8.41006 262.03 8.41006 261.6 8.41006H260.76H259.69C259.49 8.41006 259.39 8.41006 259.39 8.53006C259.39 8.65006 259.47 8.65006 259.62 8.65006C259.793 8.63191 259.967 8.63191 260.14 8.65006C260.58 8.74006 260.68 8.95006 260.71 9.40006C260.74 9.85006 260.71 10.2001 260.71 12.2201V14.5601C260.71 15.7801 260.71 16.8301 260.64 17.3901C260.59 17.7701 260.52 18.0701 260.25 18.1201C260.094 18.1399 259.936 18.1399 259.78 18.1201C259.62 18.1201 259.56 18.1201 259.56 18.2301C259.56 18.3401 259.66 18.3601 259.83 18.3601H260.75C261.07 18.3601 261.36 18.3601 261.5 18.3601C261.9 18.3601 262.31 18.3601 262.89 18.3601C263.47 18.3601 264.19 18.3601 265.18 18.3601C265.69 18.3601 265.81 18.3601 265.9 18.0201C265.993 17.5316 266.05 17.0369 266.07 16.5401C266.13 16.5701 266.13 16.4601 266 16.4601ZM196.33 9.86006L196.01 9.91006C195.746 9.95363 195.478 9.9737 195.21 9.97006H190.5C190.109 9.97105 189.719 9.95102 189.33 9.91006C189.04 9.91006 188.92 9.78006 188.83 9.78006C188.74 9.78006 188.72 9.85006 188.69 9.99006C188.66 10.1301 188.44 11.1801 188.44 11.3601C188.44 11.5401 188.44 11.5501 188.55 11.5501C188.66 11.5501 188.65 11.4901 188.68 11.4001C188.727 11.2639 188.794 11.1357 188.88 11.0201C189.05 10.7601 189.33 10.6801 190.01 10.6701H191.75V15.2001C191.75 16.2001 191.75 17.1301 191.7 17.6101C191.65 18.0901 191.59 18.1501 191.35 18.2001C191.214 18.2191 191.076 18.2191 190.94 18.2001C190.79 18.2001 190.75 18.2701 190.75 18.3201C190.75 18.3701 190.83 18.4401 190.98 18.4401C191.44 18.4401 192.24 18.4401 192.51 18.4401C192.78 18.4401 193.62 18.4401 194.39 18.4401C194.53 18.4401 194.62 18.4401 194.62 18.3201C194.62 18.2001 194.57 18.2001 194.43 18.2001C194.234 18.2156 194.036 18.2156 193.84 18.2001C193.49 18.1501 193.42 17.9401 193.38 17.6201C193.38 17.1301 193.32 16.2401 193.32 15.2001V10.6301H194.79C195.84 10.6301 196.15 10.9901 196.17 11.2801V11.4001C196.17 11.5701 196.17 11.6201 196.3 11.6201C196.43 11.6201 196.39 11.5601 196.41 11.4401C196.41 11.1501 196.41 10.3101 196.41 10.0701C196.41 9.83006 196.44 9.86006 196.36 9.86006H196.33ZM189.57 18.2401C189.477 18.2493 189.383 18.2493 189.29 18.2401C188.801 18.1386 188.36 17.8742 188.04 17.4901C187.33 16.7901 186.51 15.7701 185.47 14.4901C186.62 13.5701 187.09 12.8301 187.09 11.9901C187.08 11.6864 187.001 11.389 186.859 11.1204C186.717 10.8518 186.516 10.6192 186.27 10.4401C185.59 10.0742 184.821 9.9078 184.05 9.96006H182.23C181.99 9.96006 181.23 9.96006 180.64 9.96006C180.46 9.96006 180.37 9.96006 180.37 10.0701C180.37 10.1801 180.45 10.1901 180.57 10.1901C180.727 10.1778 180.884 10.1778 181.04 10.1901C181.114 10.1975 181.185 10.2195 181.25 10.2548C181.316 10.2901 181.373 10.338 181.42 10.3957C181.466 10.4533 181.501 10.5196 181.521 10.5908C181.542 10.6619 181.548 10.7364 181.54 10.8101C181.54 11.1701 181.54 11.4801 181.54 13.2001V15.2001C181.54 16.2001 181.54 17.1301 181.49 17.6101C181.44 18.0901 181.38 18.1501 181.15 18.2001C181.011 18.2184 180.87 18.2184 180.73 18.2001C180.59 18.2001 180.55 18.2701 180.55 18.3201C180.55 18.3701 180.63 18.4401 180.77 18.4401C181.24 18.4401 181.98 18.4401 182.21 18.4401C182.44 18.4401 183.35 18.4401 184.03 18.4401C184.17 18.4401 184.27 18.4401 184.27 18.3201C184.265 18.2847 184.247 18.2526 184.219 18.2303C184.191 18.208 184.156 18.1972 184.12 18.2001C183.93 18.2139 183.74 18.2139 183.55 18.2001C183.19 18.1501 183.14 17.9401 183.1 17.6101C183.06 17.2801 183.03 16.2501 183.03 15.2001V15.0001C183.03 14.9301 183.03 14.9101 183.13 14.9101H184.13C184.211 14.908 184.29 14.9366 184.35 14.9901C184.49 15.1701 184.99 15.9201 185.45 16.5401C185.857 17.1992 186.399 17.7649 187.04 18.2001C187.441 18.3818 187.882 18.4575 188.32 18.4201H189.44C189.58 18.4201 189.66 18.4201 189.66 18.3001C189.647 18.2739 189.626 18.2528 189.6 18.2401H189.57ZM184.86 14.2401C184.621 14.4047 184.328 14.4726 184.04 14.4301C183.74 14.4355 183.44 14.3984 183.15 14.3201C183.07 14.3201 183.04 14.2401 183.04 14.1201V10.7201C183.034 10.6843 183.042 10.6477 183.063 10.6179C183.083 10.5881 183.115 10.5673 183.15 10.5601C183.38 10.5447 183.61 10.5447 183.84 10.5601C184.094 10.5581 184.345 10.6103 184.576 10.7132C184.808 10.8161 185.015 10.9673 185.183 11.1566C185.352 11.346 185.478 11.5691 185.553 11.8112C185.629 12.0532 185.651 12.3085 185.62 12.5601C185.643 12.8724 185.588 13.1856 185.461 13.4717C185.334 13.7578 185.138 14.008 184.89 14.2001L184.86 14.2401ZM159.71 9.78006C156.16 9.78006 154.81 12.2801 154.81 14.2001C154.805 14.8134 154.928 15.421 155.171 15.984C155.415 16.5471 155.772 17.0532 156.222 17.4701C156.672 17.887 157.204 18.2055 157.784 18.4052C158.364 18.605 158.979 18.6815 159.59 18.6301C160.223 18.6775 160.859 18.5923 161.456 18.38C162.054 18.1678 162.601 17.833 163.063 17.3972C163.524 16.9615 163.889 16.4342 164.135 15.8493C164.381 15.2643 164.502 14.6345 164.49 14.0001C164.49 11.4101 162.66 9.78006 159.71 9.78006ZM160.07 18.0201C157.86 18.0201 156.54 16.1801 156.54 13.8601C156.54 11.0701 158.06 10.3801 159.37 10.3801C161.25 10.3801 162.75 11.9201 162.75 14.3801C162.75 17.6301 160.89 18.0001 160.07 18.0001V18.0201ZM169 9.94006H167.06C166.72 9.94006 165.98 9.94006 165.37 9.94006C165.2 9.94006 165.1 9.94006 165.1 10.0501C165.1 10.1601 165.18 10.1701 165.3 10.1701C165.457 10.1574 165.614 10.1574 165.77 10.1701C166.14 10.2801 166.25 10.4001 166.27 10.7901C166.29 11.1801 166.27 11.4601 166.27 13.1801V15.1801C166.27 16.1801 166.27 17.1101 166.21 17.5901C166.15 18.0701 166.11 18.1301 165.87 18.1801C165.734 18.1979 165.596 18.1979 165.46 18.1801C165.31 18.1801 165.27 18.2501 165.27 18.3001C165.27 18.3501 165.35 18.4201 165.5 18.4201C165.96 18.4201 166.7 18.4201 166.97 18.4201C167.24 18.4201 168.1 18.4201 168.88 18.4201C169 18.4201 169.1 18.4201 169.1 18.3001C169.1 18.1801 169.04 18.1801 168.91 18.1801C168.71 18.1951 168.51 18.1951 168.31 18.1801C167.97 18.1301 167.9 17.9201 167.86 17.6001C167.81 17.1101 167.81 16.2201 167.81 15.1801V10.7201C167.81 10.6001 167.81 10.5401 167.9 10.5101C168.066 10.4872 168.234 10.4872 168.4 10.5101C168.828 10.5022 169.245 10.6516 169.57 10.9301C169.806 11.1392 169.991 11.3989 170.113 11.6899C170.234 11.9808 170.288 12.2954 170.27 12.6101C170.288 13.057 170.136 13.4942 169.845 13.8337C169.554 14.1732 169.145 14.3899 168.7 14.4401C168.45 14.4401 168.31 14.4401 168.31 14.5901C168.31 14.7401 168.39 14.7101 168.46 14.7101H168.8C169.175 14.7331 169.551 14.6796 169.905 14.5527C170.259 14.4257 170.584 14.228 170.859 13.9717C171.134 13.7153 171.354 13.4057 171.505 13.0615C171.657 12.7174 171.737 12.346 171.74 11.9701C171.725 11.4628 171.518 10.9802 171.16 10.6201C170.557 10.1199 169.781 9.87584 169 9.94006ZM280.68 10.6601C281.73 10.6601 282.04 11.0201 282.06 11.3101V11.4301C282.06 11.6001 282.06 11.6501 282.19 11.6501C282.32 11.6501 282.28 11.5901 282.3 11.4701C282.3 11.1801 282.3 10.3401 282.3 10.1001C282.3 9.86006 282.3 9.86006 282.21 9.86006L281.89 9.91006C281.626 9.95363 281.358 9.9737 281.09 9.97006H276.35C275.959 9.97105 275.569 9.95102 275.18 9.91006C274.89 9.91006 274.77 9.78006 274.68 9.78006C274.59 9.78006 274.57 9.85006 274.54 9.99006C274.51 10.1301 274.29 11.1801 274.29 11.3601C274.29 11.5401 274.29 11.5501 274.4 11.5501C274.51 11.5501 274.5 11.4901 274.53 11.4001C274.577 11.2639 274.644 11.1357 274.73 11.0201C274.9 10.7601 275.18 10.6801 275.86 10.6701H277.6V15.2001C277.6 16.2001 277.6 17.1301 277.55 17.6101C277.5 18.0901 277.44 18.1501 277.2 18.2001C277.064 18.2191 276.926 18.2191 276.79 18.2001C276.64 18.2001 276.6 18.2701 276.6 18.3201C276.6 18.3701 276.68 18.4401 276.83 18.4401C277.29 18.4401 278.09 18.4401 278.36 18.4401C278.63 18.4401 279.47 18.4401 280.24 18.4401C280.38 18.4401 280.47 18.4401 280.47 18.3201C280.47 18.2001 280.42 18.2001 280.28 18.2001C280.084 18.2156 279.886 18.2156 279.69 18.2001C279.34 18.1501 279.27 17.9401 279.23 17.6201C279.18 17.1301 279.17 16.2401 279.17 15.2001V10.6301L280.68 10.6601ZM155.25 18.2401C155.157 18.2493 155.063 18.2493 154.97 18.2401C154.481 18.1386 154.04 17.8742 153.72 17.4901C153.01 16.7901 152.19 15.7701 151.15 14.4901C152.3 13.5701 152.77 12.8301 152.77 11.9901C152.76 11.6864 152.681 11.389 152.539 11.1204C152.397 10.8518 152.196 10.6192 151.95 10.4401C151.27 10.0742 150.501 9.9078 149.73 9.96006H147.91C147.67 9.96006 146.91 9.96006 146.32 9.96006C146.14 9.96006 146.05 9.96006 146.05 10.0701C146.05 10.1801 146.13 10.1901 146.25 10.1901C146.407 10.1778 146.564 10.1778 146.72 10.1901C146.794 10.1975 146.865 10.2195 146.93 10.2548C146.996 10.2901 147.053 10.338 147.1 10.3957C147.146 10.4533 147.181 10.5196 147.201 10.5908C147.222 10.6619 147.228 10.7364 147.22 10.8101C147.22 11.1701 147.22 11.4801 147.22 13.2001V15.2001C147.22 16.2001 147.22 17.1301 147.22 17.6101C147.22 18.0901 147.11 18.1501 146.88 18.2001C146.741 18.2184 146.6 18.2184 146.46 18.2001C146.32 18.2001 146.28 18.2701 146.28 18.3201C146.28 18.3701 146.36 18.4401 146.5 18.4401C146.97 18.4401 147.71 18.4401 147.94 18.4401C148.17 18.4401 149.08 18.4401 149.76 18.4401C149.9 18.4401 150 18.4401 150 18.3201C149.995 18.2847 149.977 18.2526 149.949 18.2303C149.921 18.208 149.886 18.1972 149.85 18.2001C149.66 18.2139 149.47 18.2139 149.28 18.2001C148.92 18.1501 148.87 17.9401 148.83 17.6101C148.79 17.2801 148.76 16.2501 148.76 15.2001V15.0001C148.76 14.9301 148.76 14.9101 148.86 14.9101H149.86C149.941 14.908 150.02 14.9366 150.08 14.9901C150.22 15.1701 150.71 15.9201 151.18 16.5401C151.587 17.1992 152.129 17.7649 152.77 18.2001C153.171 18.3818 153.612 18.4575 154.05 18.4201H155.17C155.31 18.4201 155.39 18.4201 155.39 18.3001C155.376 18.2766 155.355 18.2582 155.33 18.2474C155.305 18.2366 155.277 18.2341 155.25 18.2401ZM150.54 14.2401C150.301 14.4047 150.008 14.4726 149.72 14.4301C149.42 14.4355 149.12 14.3984 148.83 14.3201C148.75 14.3201 148.72 14.2401 148.72 14.1201V10.7201C148.714 10.6843 148.722 10.6477 148.743 10.6179C148.763 10.5881 148.795 10.5673 148.83 10.5601C149.06 10.5447 149.29 10.5447 149.52 10.5601C149.774 10.5581 150.025 10.6103 150.256 10.7132C150.488 10.8161 150.695 10.9673 150.863 11.1566C151.032 11.346 151.158 11.5691 151.233 11.8112C151.309 12.0532 151.331 12.3085 151.3 12.5601C151.32 12.875 151.26 13.1899 151.128 13.4762C150.995 13.7625 150.793 14.0113 150.54 14.2001V14.2401ZM179 16.8701C178.92 17.3401 178.79 17.5801 178.5 17.7101C178.142 17.8235 177.766 17.8743 177.39 17.8601C176.2 17.8601 175.84 17.6901 175.81 16.9201C175.81 16.5801 175.81 15.6301 175.81 15.2401V14.3401C175.81 14.2701 175.81 14.2201 175.88 14.2201C176.17 14.2201 177.5 14.2201 177.71 14.2201C178.15 14.2201 178.3 14.4301 178.36 14.6601C178.369 14.7966 178.369 14.9335 178.36 15.0701C178.36 15.1201 178.36 15.1601 178.47 15.1601C178.58 15.1601 178.59 15.0001 178.59 14.9101C178.59 14.8201 178.59 14.3801 178.59 14.1501C178.66 13.5801 178.69 13.4001 178.69 13.3301C178.69 13.2601 178.69 13.2101 178.59 13.2101C178.49 13.2101 178.5 13.2801 178.41 13.3601C178.32 13.4401 178.13 13.5001 177.85 13.5301C177.57 13.5601 176.07 13.5301 175.85 13.5301C175.79 13.5301 175.77 13.4701 175.77 13.4101V10.7001C175.77 10.6301 175.77 10.5901 175.85 10.5901C176.09 10.5901 177.49 10.5901 177.69 10.6401C178.27 10.7001 178.36 10.8601 178.46 11.0601C178.511 11.1909 178.538 11.3297 178.54 11.4701C178.54 11.5601 178.54 11.6101 178.63 11.6101C178.72 11.6101 178.75 11.4801 178.76 11.4301C178.77 11.3801 178.82 10.8001 178.83 10.6801C178.846 10.4352 178.876 10.1915 178.92 9.95006C178.92 9.95006 178.92 9.85006 178.84 9.85006C178.779 9.86335 178.719 9.88005 178.66 9.90006L178.17 9.97006H175C174.66 9.97006 173.92 9.97006 173.31 9.97006C173.14 9.97006 173.04 9.97006 173.04 10.0801C173.04 10.1901 173.12 10.2001 173.24 10.2001C173.397 10.1878 173.554 10.1878 173.71 10.2001C174.08 10.3101 174.19 10.4301 174.21 10.8201C174.23 11.2101 174.21 11.4901 174.21 13.2101V15.2101C174.21 16.2101 174.21 17.1401 174.15 17.6201C174.09 18.1001 174.05 18.1601 173.81 18.2101C173.671 18.2284 173.53 18.2284 173.39 18.2101C173.25 18.2101 173.21 18.2801 173.21 18.3301C173.21 18.3801 173.29 18.4501 173.43 18.4501H174.25H174.91H176.26C176.84 18.4501 177.54 18.4501 178.42 18.4501C178.86 18.4501 178.96 18.4501 179.04 18.1601C179.129 17.7487 179.183 17.3305 179.2 16.9101C179.2 16.7901 179.2 16.6401 179.1 16.6401C179 16.6401 179 16.7601 179 16.8701ZM271.31 13.3101L270.84 13.0501C269.79 12.4601 269.6 12.0501 269.6 11.5601C269.6 10.7901 270.36 10.3501 271.19 10.3501C271.434 10.333 271.679 10.3718 271.906 10.4636C272.133 10.5555 272.336 10.6979 272.5 10.8801C272.677 11.0919 272.782 11.3545 272.8 11.6301C272.8 11.7601 272.8 11.8301 272.92 11.8301C273.04 11.8301 273.07 11.7101 273.07 11.4701C273.07 10.5801 273.07 10.2601 273.07 10.1101C273.07 9.96006 273 10.0001 272.9 10.0001C272.356 9.87068 271.799 9.80689 271.24 9.81006C269.62 9.81006 268.29 10.7001 268.29 12.0801C268.29 13.0801 268.74 13.8401 270.12 14.6501L270.8 15.0401C271.8 15.6601 271.95 16.1501 271.95 16.6401C271.938 16.8375 271.885 17.0303 271.796 17.2069C271.707 17.3835 271.583 17.5402 271.432 17.6674C271.28 17.7946 271.104 17.8896 270.915 17.9468C270.726 18.004 270.527 18.0221 270.33 18.0001C269.942 18.0387 269.552 17.9517 269.217 17.7519C268.882 17.552 268.62 17.2499 268.47 16.8901C268.412 16.6985 268.378 16.5002 268.37 16.3001C268.37 16.2201 268.37 16.1201 268.25 16.1201C268.13 16.1201 268.1 16.2401 268.1 16.4101C268.1 16.5801 268.04 17.3001 268.04 17.9101C268.04 18.1601 268.04 18.2201 268.26 18.3001C268.869 18.5163 269.514 18.6147 270.16 18.5901C270.843 18.635 271.523 18.471 272.11 18.1201C272.474 17.903 272.774 17.5934 272.98 17.2228C273.185 16.8522 273.289 16.4337 273.28 16.0101C273.28 15.0001 272.81 14.1601 271.26 13.3101H271.31ZM23.1201 0.0600586C10.5701 0.0600586 0.370117 6.58006 0.370117 13.5001C0.370117 20.4201 10.5401 26.9401 23.1201 26.9401C35.7001 26.9401 45.8701 20.4201 45.8701 13.5001C45.8701 6.58006 35.6801 0.0600586 23.1201 0.0600586ZM23.8201 4.43006C23.5101 4.24006 23.8201 2.09006 23.8901 1.65006C26.3852 1.69934 28.863 2.07589 31.2601 2.77006C30.9401 3.27006 30.4701 4.15006 30.1501 4.70006C29.5324 5.68672 28.8649 6.64129 28.1501 7.56006C27.7001 8.09006 25.3501 12.1901 24.0001 14.0001C22.6501 15.8101 21.6701 14.8801 21.4501 14.7301C20.4501 13.9901 22.7201 7.94006 23.5501 6.04006C24.1601 4.61006 24.0001 4.58006 23.8201 4.43006ZM6.33012 19.1101C4.92602 17.5739 4.12661 15.5807 4.08012 13.5001C4.08012 6.94006 12.6201 1.64006 23.0801 1.64006H23.3601C23.1101 2.17006 22.7001 3.23006 22.4301 3.77006C22.0601 4.51006 19.5201 10.3101 18.8801 12.3001C18.7061 13.0381 18.2489 13.6781 17.6073 14.0822C16.9656 14.4863 16.1909 14.622 15.4501 14.4601C14.8434 14.4761 14.2499 14.2817 13.7701 13.9101C13.3001 13.5501 13.3801 12.3201 13.4701 11.9101C13.5601 11.5001 14.0501 9.34006 14.1401 8.91006C14.7101 6.28006 14.0101 6.96006 14.0601 5.30006C14.0601 4.82006 13.8901 4.64006 13.7801 4.67006C13.6701 4.70006 13.5801 4.74006 13.5701 5.05006C13.097 6.99253 12.4546 8.88979 11.6501 10.7201C11.3455 11.4839 11.1405 12.2838 11.0401 13.1001C11.1201 15.4501 8.82012 15.7301 7.77012 18.6101C7.71028 18.7391 7.62509 18.8548 7.51961 18.9502C7.41414 19.0456 7.29053 19.1188 7.15617 19.1655C7.0218 19.2121 6.87942 19.2313 6.73751 19.2218C6.59559 19.2122 6.45704 19.1742 6.33012 19.1101ZM23.1201 25.3601C19.1978 25.4023 15.3127 24.5973 11.7301 23.0001C11.375 22.7156 11.115 22.3298 10.9846 21.8939C10.8542 21.458 10.8596 20.9928 11.0001 20.5601C13.4301 13.5601 25.9401 20.2001 28.2801 21.2601C33.9101 23.8301 35.2801 21.4401 36.6501 18.3901C37.4133 16.7889 38.3239 15.2623 39.3701 13.8301C38.8401 13.5501 40.7101 11.5701 40.7301 11.5301C40.7501 11.4901 40.5601 11.4401 40.3501 11.5301C39.1701 12.1101 36.8901 14.0301 34.7301 17.7301C32.8201 21.0501 31.6401 19.8601 31.2901 19.6201C31.0684 19.4058 30.9207 19.1264 30.8685 18.8225C30.8164 18.5186 30.8625 18.206 31.0001 17.9301C31.2901 17.1701 33.7701 12.5001 34.2401 11.7901C34.8932 10.8204 35.4492 9.78872 35.9001 8.71006C35.9601 7.71006 36.5701 6.83006 36.4301 6.71006C36.2901 6.59006 35.9601 6.79006 35.6701 7.07006C33.4577 9.70182 31.4136 12.4707 29.5501 15.3601C28.0601 17.7301 27.2401 17.2901 26.9201 17.1901C26.6673 17.1261 26.4495 16.9658 26.3131 16.7435C26.1767 16.5212 26.1326 16.2544 26.1901 16.0001C26.9439 13.9075 27.9089 11.8971 29.0701 10.0001C29.5401 9.29006 31.0001 7.00006 30.6701 6.78006C30.3401 6.56006 31.0501 5.00006 31.3401 4.30006C31.5146 3.85097 31.6256 3.37978 31.6701 2.90006C37.8801 4.85006 42.1601 8.90006 42.1601 13.5001C42.1601 20.0601 33.6301 25.3601 23.1201 25.3601Z" fill="white"/>
</svg>
